<svg width="512" height="512" viewBox="0 0 512 512" fill="none" xmlns="http://www.w3.org/2000/svg">
<path d="M133.1 219.5C180.21 219.5 218.4 181.31 218.4 134.2C218.4 87.09 180.21 48.8999 133.1 48.8999C85.9899 48.8999 47.7998 87.09 47.7998 134.2C47.7998 181.31 85.9899 219.5 133.1 219.5Z" fill="url(#paint0_linear_120_1973)"/>
<path d="M250.501 72.8999C247.901 67.8999 241.701 65.9999 236.701 68.5999L218.601 78.0999C213.601 80.6999 211.701 86.8999 214.301 91.8999C216.901 96.8999 223.101 98.7999 228.101 96.1999L246.201 86.6999C251.201 84.0999 253.101 77.8999 250.501 72.8999Z" fill="url(#paint1_linear_120_1973)"/>
<path d="M51.8004 177.1C49.2004 172.1 43.0004 170.2 38.0004 172.8L19.9004 182.3C14.9004 184.9 13.0004 191.1 15.6004 196.1C18.2004 201.1 24.4004 203 29.4004 200.4L47.5004 190.9C52.4004 188.3 54.4004 182.1 51.8004 177.1Z" fill="url(#paint2_linear_120_1973)"/>
<path d="M259.7 174C261.4 168.6 258.4 162.9 253 161.2L233.5 155.1C228.1 153.4 222.4 156.4 220.7 161.8C219 167.2 222 172.9 227.4 174.6L246.9 180.7C252.3 182.4 258 179.4 259.7 174Z" fill="url(#paint3_linear_120_1973)"/>
<path d="M45.4002 107.2C47.1002 101.8 44.1002 96.1 38.7002 94.4L19.2002 88.3C13.9002 86.6 8.10018 89.6 6.50018 95C4.80018 100.4 7.80018 106.1 13.2002 107.8L32.7002 113.9C38.0002 115.5 43.7002 112.6 45.4002 107.2Z" fill="url(#paint4_linear_120_1973)"/>
<path d="M71.5 17.1002C66.5 19.7002 64.6 25.9002 67.2 30.9002L76.7 49.0002C79.3 54.0002 85.5 55.9002 90.5 53.3002C95.5 50.7002 97.4 44.5002 94.8 39.5002L85.3 21.4002C82.6 16.4002 76.5 14.4002 71.5 17.1002Z" fill="url(#paint5_linear_120_1973)"/>
<path d="M175.7 215.8C170.7 218.4 168.8 224.6 171.4 229.6L180.9 247.7C183.5 252.7 189.7 254.6 194.7 252C199.7 249.4 201.6 243.2 199 238.2L189.5 220.1C186.9 215.1 180.7 213.2 175.7 215.8Z" fill="url(#paint6_linear_120_1973)"/>
<path d="M93.6006 261.1C99.0006 262.8 104.701 259.8 106.401 254.4L112.501 234.9C114.201 229.5 111.201 223.8 105.801 222.1C100.401 220.4 94.7006 223.4 93.0006 228.8L86.9006 248.3C85.2006 253.7 88.2006 259.4 93.6006 261.1Z" fill="url(#paint7_linear_120_1973)"/>
<path d="M160.4 46.9001C165.8 48.6001 171.5 45.6001 173.2 40.2001L179.3 20.7001C181 15.3001 178 9.60008 172.6 7.90008C167.2 6.20008 161.5 9.20008 159.8 14.6001L153.7 34.1001C152 39.5001 155 45.2001 160.4 46.9001Z" fill="url(#paint8_linear_120_1973)"/>
<path opacity="0.5" d="M129.3 219.1C151.4 219.8 177 211.8 192.2 195.1C176 203.4 154.8 213.1 130.5 212.3C106.2 211.5 93.2002 205.9 79.7002 199.9C90.9002 209.1 106.9 218.4 129.3 219.1Z" fill="#D58128"/>
<path opacity="0.2" d="M136.801 48.2C114.901 47.5 89.6006 55.5 74.6006 72.2C90.6006 63.9 111.601 54.2 135.701 54.9C159.801 55.7 172.501 61.3 185.901 67.3C174.701 58.2 159.001 48.9 136.801 48.2Z" fill="#D58128"/>
<path d="M416.7 177.4C404.7 177.4 393.2 179.9 382.7 184.2C359.1 138 311.5 106 256 106C200.5 106 152.9 138 129.3 184.2C118.8 179.9 107.4 177.4 95.3 177.4C46 177.4 6 217.4 6 266.7C6 316 46 356 95.3 356C114.4 356 132.1 349.9 146.6 339.6C172.8 371.2 211.8 391.7 256 391.7C300.2 391.7 339.2 371.2 365.4 339.6C379.9 349.8 397.6 356 416.7 356C466 356 506 316 506 266.7C506 217.4 466 177.4 416.7 177.4Z" fill="#BEC6D2"/>
<path opacity="0.05" d="M267.8 254.6C171.6 244.9 81.4998 258.3 10.2998 288.3C19.1998 328.3 54.7998 358.2 97.3998 358.2C116.5 358.2 134.2 352.1 148.7 341.8C174.9 373.4 213.9 393.9 258.1 393.9C302.3 393.9 341.3 373.4 367.5 341.8C382 352 399.7 358.2 418.8 358.2C447.4 358.2 472.8 344.7 489.2 323.7C428.6 288.3 352.3 263.1 267.8 254.6Z" fill="#A7A9AC"/>
<path d="M416.7 191.7C404.7 191.7 393.2 194.2 382.7 198.5C359 152.3 311.5 120.3 256 120.3C200.5 120.3 152.9 152.3 129.3 198.5C118.8 194.2 107.4 191.7 95.3 191.7C46 191.7 6 231.7 6 281C6 330.3 46 370.3 95.3 370.3C114.4 370.3 132.1 364.2 146.6 353.9C172.8 385.5 211.8 406 256 406C300.2 406 339.2 385.5 365.4 353.9C379.9 364.1 397.6 370.3 416.7 370.3C466 370.3 506 330.3 506 281C506 231.7 466 191.7 416.7 191.7Z" fill="#D3DEE2"/>
<path d="M156.2 247.5C163.7 247.5 170.7 249 177.2 251.7C191.8 223.1 221.2 203.4 255.5 203.4C289.8 203.4 319.2 223.2 333.8 251.7C340.3 249 347.4 247.5 354.8 247.5C382.7 247.5 405.7 268.2 409.4 295.1C409.7 292.6 410 290.1 410 287.6C410 257.1 385.3 232.4 354.8 232.4C347.4 232.4 340.3 233.9 333.8 236.6C319.2 208 289.8 188.3 255.5 188.3C221.2 188.3 191.8 208.1 177.2 236.6C170.7 233.9 163.7 232.4 156.2 232.4C125.7 232.4 101 257.1 101 287.6C101 290.2 101.2 292.7 101.6 295.1C105.2 268.2 128.2 247.5 156.2 247.5Z" fill="#BEC6D2"/>
<defs>
<linearGradient id="paint0_linear_120_1973" x1="158.51" y1="52.7485" x2="107.69" y2="215.651" gradientUnits="userSpaceOnUse">
<stop stop-color="#FEDA00"/>
<stop offset="1" stop-color="#E2A025"/>
</linearGradient>
<linearGradient id="paint1_linear_120_1973" x1="237.596" y1="65.7459" x2="227.225" y2="98.9917" gradientUnits="userSpaceOnUse">
<stop stop-color="#FEDA00"/>
<stop offset="1" stop-color="#E7A423"/>
</linearGradient>
<linearGradient id="paint2_linear_120_1973" x1="38.8633" y1="169.99" x2="28.4918" y2="203.236" gradientUnits="userSpaceOnUse">
<stop stop-color="#FEDA00"/>
<stop offset="1" stop-color="#E7A423"/>
</linearGradient>
<linearGradient id="paint3_linear_120_1973" x1="243.234" y1="158.176" x2="237.159" y2="177.651" gradientUnits="userSpaceOnUse">
<stop stop-color="#FEDA00"/>
<stop offset="1" stop-color="#E7A423"/>
</linearGradient>
<linearGradient id="paint4_linear_120_1973" x1="28.9901" y1="91.3538" x2="22.9094" y2="110.846" gradientUnits="userSpaceOnUse">
<stop stop-color="#FEDA00"/>
<stop offset="1" stop-color="#E7A423"/>
</linearGradient>
<linearGradient id="paint5_linear_120_1973" x1="86.2014" y1="18.5272" x2="75.8299" y2="51.773" gradientUnits="userSpaceOnUse">
<stop stop-color="#FEDA00"/>
<stop offset="1" stop-color="#E7A423"/>
</linearGradient>
<linearGradient id="paint6_linear_120_1973" x1="190.394" y1="217.251" x2="180.023" y2="250.497" gradientUnits="userSpaceOnUse">
<stop stop-color="#FEDA00"/>
<stop offset="1" stop-color="#E7A423"/>
</linearGradient>
<linearGradient id="paint7_linear_120_1973" x1="105.766" y1="222.158" x2="93.6153" y2="261.106" gradientUnits="userSpaceOnUse">
<stop stop-color="#FEDA00"/>
<stop offset="1" stop-color="#E7A423"/>
</linearGradient>
<linearGradient id="paint8_linear_120_1973" x1="172.585" y1="7.89529" x2="160.435" y2="46.8434" gradientUnits="userSpaceOnUse">
<stop stop-color="#FEDA00"/>
<stop offset="1" stop-color="#E7A423"/>
</linearGradient>
</defs>
</svg>
